<svg xmlns="http://www.w3.org/2000/svg" width="16px" height="16px" viewBox="0 0 2048 2048">
	<circle fill-opacity="0.6" r="896"
			cx="1024" cy="1024"
			fill="#bcfbc1"
			style="stroke: rgb(64, 182, 224); stroke-width: 128px; stroke-opacity: 1;"></circle>
	<g transform="scale(0.52)"><path fill-opacity="0.7" transform="translate(820.25, 2580) rotate(180) scale(-1, 1)" fill="#231f20" d="M700 526q-164 0 -229 -42t-65 -144q0 -76 45 -121t122 -45q116 0 180 87.5t64 244.5v20h-117zM1108 639v-639h-291v125q-53 -74 -136 -114t-183 -40q-191 0 -297.5 101t-106.5 282q0 196 127 289.5t393 93.5h203v49q0 71 -51.5 107.5t-151.5 36.5q-105 0 -203.5 -26.5 t-205.5 -84.5v250q97 40 197 59t212 19q273 0 383.5 -111t110.5 -397z"></path><path fill-opacity="0.7" transform="translate(2053.25, 2580) rotate(180) scale(-1, 1)" fill="#231f20" d="M991 1085v-256q-81 52 -168.5 78.5t-175.5 26.5q-98 0 -148 -28.5t-50 -84.5q0 -80 214 -130l11 -3l84 -20q160 -38 234.5 -122.5t74.5 -228.5q0 -173 -113.5 -259.5t-341.5 -86.5q-101 0 -207 17.5t-215 52.5v256q97 -55 197.5 -84t194.5 -29q103 0 156 30t53 87 q0 56 -37.5 86t-178.5 64l-81 18q-168 38 -245 119t-77 217q0 162 117 252t329 90q95 0 189.5 -15.5t183.5 -46.5z"></path></g>
</svg>