<svg xmlns="http://www.w3.org/2000/svg" width="16px" height="16px" viewBox="0 0 2048 2048">
	<circle fill-opacity="0.7" r="896" cx="1024" cy="1024" fill="#75c5e1" style="stroke: rgb(64, 182, 224); stroke-width: 128px; stroke-opacity: 1;"></circle>
	<g transform="scale(0.6)"><path fill-opacity="0.7" transform="translate(819.2, 2395.68) rotate(180) scale(-1, 1)" fill="#231f20" d="M1081 43q-70 -36 -147 -54t-162 -18q-302 0 -461 199t-159 575q0 377 159 576t461 199q85 0 163 -18t146 -54v-328q-76 70 -147.5 102.5t-147.5 32.5q-162 0 -244.5 -128.5t-82.5 -381.5q0 -252 82.5 -380.5t244.5 -128.5q76 0 147.5 32.5t147.5 102.5v-328z"></path></g>
</svg>