<svg xmlns="http://www.w3.org/2000/svg" width="16px" height="16px" viewBox="0 0 2048 2048">
	<circle fill-opacity="0.6" r="896" cx="1024" cy="1024" fill="#bcfbc1" style="stroke: rgb(64, 182, 224); stroke-width: 128px; stroke-opacity: 1;"></circle>
	<g transform="scale(0.56)"><path fill-opacity="0.7" transform="translate(574.49, 2498.08) rotate(180) scale(-1, 1)" fill="#231f20" d="M201 1493h829v-170h-313v-1153h313v-170h-829v170h313v1153h-313v170z"></path><path fill-opacity="0.7" transform="translate(1807.49, 2498.08) rotate(180) scale(-1, 1)" fill="#231f20" d="M1051 694v-694h-185v694q0 151 -53 222t-166 71q-129 0 -198.5 -91.5t-69.5 -262.5v-633h-184v1120h184v-168q49 96 133 145.5t199 49.5q171 0 255.5 -112.5t84.5 -340.5z"></path></g>
</svg>