<svg xmlns="http://www.w3.org/2000/svg" width="16px" height="16px" viewBox="0 0 2048 2048">
	<circle fill-opacity="0.7" r="896" cx="1024" cy="1024" fill="#d2f8d5" style="stroke: rgb(64, 182, 224); stroke-width: 128px; stroke-opacity: 1;"></circle>
	<g transform="scale(0.48)"><path fill-opacity="0.7" transform="translate(820.25, 2580) rotate(180) scale(-1, 1)" fill="#231f20" d="M991 1085v-256q-81 52 -168.5 78.5t-175.5 26.5q-98 0 -148 -28.5t-50 -84.5q0 -80 214 -130l11 -3l84 -20q160 -38 234.5 -122.5t74.5 -228.5q0 -173 -113.5 -259.5t-341.5 -86.5q-101 0 -207 17.5t-215 52.5v256q97 -55 197.5 -84t194.5 -29q103 0 156 30t53 87 q0 56 -37.5 86t-178.5 64l-81 18q-168 38 -245 119t-77 217q0 162 117 252t329 90q95 0 189.5 -15.5t183.5 -46.5z"></path><path fill-opacity="0.7" transform="translate(2053.25, 2580) rotate(180) scale(-1, 1)" fill="#231f20" d="M442 158v-584h-292v1546h292v-168q46 97 121 146t176 49q192 0 298 -154t106 -434q0 -284 -107.5 -436t-306.5 -152q-90 0 -161.5 46.5t-125.5 140.5zM850 561q0 162 -54 254t-149 92t-150 -92t-55 -254t55 -254t150 -92t149 92t54 254z"></path></g>
</svg>